<svg version="1.1" id="Layer_1" xmlns="http://www.w3.org/2000/svg" xmlns:xlink="http://www.w3.org/1999/xlink" x="0px" y="0px"
	 width="100%" viewBox="0 0 391 405" enable-background="new 0 0 391 405" xml:space="preserve">
<path opacity="0.000000" stroke="none" 
	d="
M258.000000,406.000000 
	C172.000000,406.000000 86.500000,406.000000 1.000000,406.000000 
	C1.000000,271.000000 1.000000,136.000000 1.000000,1.000000 
	C131.333328,1.000000 261.666656,1.000000 392.000000,1.000000 
	C392.000000,136.000000 392.000000,271.000000 392.000000,406.000000 
	C347.500000,406.000000 303.000000,406.000000 258.000000,406.000000 
M275.294556,317.824097 
	C278.894379,317.200958 282.550995,316.804413 286.085114,315.919006 
	C316.023621,308.418701 335.638855,281.231018 329.155731,248.487549 
	C327.735382,241.314026 324.246521,234.550079 321.612488,227.329453 
	C322.923676,226.329163 324.480560,225.089584 326.089508,223.921738 
	C349.230408,207.124832 356.386627,176.840973 343.163788,151.486526 
	C334.582428,135.031982 320.947510,125.310516 302.863983,121.876099 
	C298.244598,120.998795 296.470703,119.172455 296.963745,114.288139 
	C297.884644,105.165825 295.791687,96.478043 292.089142,88.094055 
	C277.552307,55.176987 233.202667,41.969322 202.788422,68.464630 
	C198.922028,71.832825 196.899948,72.106247 192.978256,68.684364 
	C178.402313,55.966118 161.492844,51.118927 142.424667,55.716316 
	C114.935196,62.344101 97.175270,85.823967 98.143700,114.368561 
	C98.292023,118.740486 97.133247,120.136177 92.782135,121.238930 
	C85.785690,123.012100 78.646492,125.347984 72.450340,128.960266 
	C43.851589,145.632950 36.322582,184.688766 56.378895,210.976303 
	C61.097343,217.160706 66.431709,222.875168 71.482735,228.805832 
	C71.900818,230.128540 70.516846,232.754089 69.240616,235.431015 
	C58.889370,257.143097 63.122475,282.569885 80.080727,299.580597 
	C96.205025,315.754730 115.569946,320.223999 137.400253,314.678192 
	C140.831390,313.806549 142.663712,314.228424 143.957794,317.619781 
	C158.409592,355.492920 208.053009,366.454224 236.522629,337.707062 
	C243.044724,331.121368 247.733536,322.720093 253.480087,314.861725 
	C259.700714,315.746613 267.055573,316.792847 275.294556,317.824097 
z"/>
<path fill="#F179A8" opacity="1.000000" stroke="none" 
	d="
M274.852478,317.831604 
	C267.055573,316.792847 259.700714,315.746613 253.480087,314.861725 
	C247.733536,322.720093 243.044724,331.121368 236.522629,337.707062 
	C208.053009,366.454224 158.409592,355.492920 143.957794,317.619781 
	C142.663712,314.228424 140.831390,313.806549 137.400253,314.678192 
	C115.569946,320.223999 96.205025,315.754730 80.080727,299.580597 
	C63.122475,282.569885 58.889370,257.143097 69.240616,235.431015 
	C70.516846,232.754089 71.900818,230.128540 71.482735,228.805832 
	C66.431709,222.875168 61.097343,217.160706 56.378895,210.976303 
	C36.322582,184.688766 43.851589,145.632950 72.450340,128.960266 
	C78.646492,125.347984 85.785690,123.012100 92.782135,121.238930 
	C97.133247,120.136177 98.292023,118.740486 98.143700,114.368561 
	C97.175270,85.823967 114.935196,62.344101 142.424667,55.716316 
	C161.492844,51.118927 178.402313,55.966118 192.978256,68.684364 
	C196.899948,72.106247 198.922028,71.832825 202.788422,68.464630 
	C233.202667,41.969322 277.552307,55.176987 292.089142,88.094055 
	C295.791687,96.478043 297.884644,105.165825 296.963745,114.288139 
	C296.470703,119.172455 298.244598,120.998795 302.863983,121.876099 
	C320.947510,125.310516 334.582428,135.031982 343.163788,151.486526 
	C356.386627,176.840973 349.230408,207.124832 326.089508,223.921738 
	C324.480560,225.089584 322.923676,226.329163 321.612488,227.329453 
	C324.246521,234.550079 327.735382,241.314026 329.155731,248.487549 
	C335.638855,281.231018 316.023621,308.418701 286.085114,315.919006 
	C282.550995,316.804413 278.894379,317.200958 274.852478,317.831604 
M188.425690,249.271576 
	C191.888290,249.528259 195.350464,250.000458 198.813538,250.007080 
	C223.530365,250.054321 244.279572,229.147934 243.687912,203.163834 
	C243.251587,184.001389 233.549957,169.359375 215.834305,161.694626 
	C186.326096,148.927811 152.772873,168.793289 151.278137,202.809616 
	C150.309570,224.851974 166.502457,245.026825 188.425690,249.271576 
z"/>
<path fill="#FBD7E8" opacity="1.000000" stroke="none" 
	d="
M188.010635,249.170074 
	C166.502457,245.026825 150.309570,224.851974 151.278137,202.809616 
	C152.772873,168.793289 186.326096,148.927811 215.834305,161.694626 
	C233.549957,169.359375 243.251587,184.001389 243.687912,203.163834 
	C244.279572,229.147934 223.530365,250.054321 198.813538,250.007080 
	C195.350464,250.000458 191.888290,249.528259 188.010635,249.170074 
z"/>
</svg>